<?xml version="1.0" standalone="no"?><svg xmlns="http://www.w3.org/2000/svg" viewBox="0 0 1440 320"><path fill="#fff" fill-opacity="1" d="M0,64L15,58.7C30,53,60,43,90,69.3C120,96,150,160,180,176C210,192,240,160,270,122.7C300,85,330,43,360,64C390,85,420,171,450,170.7C480,171,510,85,540,69.3C570,53,600,107,630,122.7C660,139,690,117,720,128C750,139,780,181,810,165.3C840,149,870,75,900,42.7C930,11,960,21,990,37.3C1020,53,1050,75,1080,80C1110,85,1140,75,1170,58.7C1200,43,1230,21,1260,48C1290,75,1320,149,1350,186.7C1380,224,1410,224,1425,224L1440,224L1440,320L1425,320C1410,320,1380,320,1350,320C1320,320,1290,320,1260,320C1230,320,1200,320,1170,320C1140,320,1110,320,1080,320C1050,320,1020,320,990,320C960,320,930,320,900,320C870,320,840,320,810,320C780,320,750,320,720,320C690,320,660,320,630,320C600,320,570,320,540,320C510,320,480,320,450,320C420,320,390,320,360,320C330,320,300,320,270,320C240,320,210,320,180,320C150,320,120,320,90,320C60,320,30,320,15,320L0,320Z"></path></svg>